<?xml version="1.0" standalone="no"?><!DOCTYPE svg PUBLIC "-//W3C//DTD SVG 1.1//EN" "http://www.w3.org/Graphics/SVG/1.1/DTD/svg11.dtd"><svg class="icon" width="200px" height="200.00px" viewBox="0 0 1024 1024" version="1.1" xmlns="http://www.w3.org/2000/svg"><path fill="#333333" d="M512.015 130.161C265.109 130.161 65 296.933 65 502.687c0 102.92 50.085 196.079 131.034 263.495L171.981 893.84l107.097-73.164c67.853 34.559 147.593 54.537 232.937 54.537C758.891 875.213 959 708.412 959 502.687 959 296.933 758.891 130.161 512.015 130.161zM512.015 845.412c-77.66 0-153.53-17.736-219.418-51.293l-15.745-8.018-62.265 42.533 13.969-74.152-13.445-11.205c-77.587-64.607-120.31-150.053-120.31-240.59 0-188.977 187.158-342.726 417.214-342.726 230.041 0 417.185 153.749 417.185 342.726S742.056 845.412 512.015 845.412zM318.308 482.199c-16.458 0-29.801 13.314-29.801 29.802 0 16.457 13.343 29.8 29.801 29.8s29.801-13.344 29.801-29.8C348.109 495.513 334.766 482.199 318.308 482.199zM512.015 482.199c-16.458 0-29.801 13.314-29.801 29.802 0 16.457 13.344 29.8 29.801 29.8 16.457 0 29.801-13.344 29.801-29.8C541.815 495.513 528.472 482.199 512.015 482.199zM705.691 482.199c-16.457 0-29.801 13.314-29.801 29.802 0 16.457 13.344 29.8 29.801 29.8 16.458 0 29.802-13.344 29.802-29.8C735.493 495.513 722.149 482.199 705.691 482.199z" /></svg>