<?xml version="1.0" encoding="utf-8"?>
<!-- Generator: Adobe Illustrator 16.0.0, SVG Export Plug-In . SVG Version: 6.00 Build 0)  -->
<!DOCTYPE svg PUBLIC "-//W3C//DTD SVG 1.1//EN" "http://www.w3.org/Graphics/SVG/1.1/DTD/svg11.dtd">
<svg version="1.1" id="图层_1" xmlns="http://www.w3.org/2000/svg" xmlns:xlink="http://www.w3.org/1999/xlink" x="0px" y="0px"
	 width="200px" height="200px" viewBox="0 0 200 200" enable-background="new 0 0 200 200" xml:space="preserve">
<g>
	<path fill="#FFFFFF" d="M138.217,57.397l-17.818-6.52l-9.408,25.711c-2.643,7.217-3.193,14.433-1.655,21.645
		c1.538,7.214,4.938,13.656,10.188,19.326c3.686,3.907,6.074,8.45,7.166,13.619c1.092,5.176,0.701,10.32-1.17,15.43
		c-2.754,7.516-7.824,12.992-15.219,16.425c-3.641,1.567-7.35,2.383-11.126,2.448c-3.775,0.066-7.488-0.735-11.137-2.412
		c-6.956-2.883-11.947-7.654-14.969-14.301c-3.025-6.647-3.396-13.561-1.109-20.737c1.064-3.36,2.826-6.552,5.292-9.572
		l-14.154-12.335c-2.042,2.316-3.849,4.809-5.419,7.475c-1.572,2.666-2.832,5.529-3.782,8.588
		c-1.942,5.771-2.721,11.623-2.338,17.56c0.389,5.94,1.795,11.526,4.225,16.769c2.431,5.235,5.779,9.951,10.037,14.156
		c4.259,4.197,9.264,7.525,15.019,9.971c6.057,2.559,12.249,3.801,18.584,3.733c6.33-0.072,12.477-1.489,18.434-4.252
		c5.901-2.612,11.059-6.226,15.473-10.834s7.75-9.995,10.005-16.159c3.136-8.57,3.806-17.148,2.04-25.719
		c-1.764-8.578-5.745-16.215-11.945-22.915c-2.813-2.907-4.656-6.267-5.482-10.063c-0.787-3.786-0.516-7.561,0.859-11.323
		L138.217,57.397z"/>
	<path fill="#FFFFFF" d="M137.971,41.896c7.344,0,13.336-5.99,13.336-13.336c0-7.341-5.992-13.331-13.336-13.331
		c-7.345,0-13.337,5.99-13.337,13.331C124.634,35.906,130.626,41.896,137.971,41.896z"/>
</g>
</svg>
