<?xml version="1.0" encoding="utf-8"?>
<!-- Generator: Adobe Illustrator 16.0.0, SVG Export Plug-In . SVG Version: 6.00 Build 0)  -->
<!DOCTYPE svg PUBLIC "-//W3C//DTD SVG 1.1//EN" "http://www.w3.org/Graphics/SVG/1.1/DTD/svg11.dtd">
<svg version="1.1" id="图层_1" xmlns="http://www.w3.org/2000/svg" xmlns:xlink="http://www.w3.org/1999/xlink" x="0px" y="0px"
	 width="200px" height="200px" viewBox="0 0 200 200" enable-background="new 0 0 200 200" xml:space="preserve">
<g>
	<path fill="#4A576A" d="M138.217,57.397l-17.818-6.52l-9.409,25.711c-2.642,7.217-3.193,14.433-1.655,21.645
		c1.538,7.214,4.938,13.655,10.188,19.325c3.686,3.908,6.074,8.451,7.166,13.62c1.092,5.176,0.702,10.32-1.17,15.429
		c-2.753,7.516-7.823,12.993-15.218,16.425c-3.641,1.568-7.35,2.383-11.126,2.449c-3.775,0.066-7.488-0.736-11.137-2.412
		c-6.956-2.884-11.947-7.655-14.969-14.302c-3.025-6.647-3.396-13.56-1.109-20.737c1.064-3.36,2.826-6.551,5.292-9.572
		l-14.154-12.335c-2.042,2.316-3.849,4.808-5.419,7.474c-1.572,2.666-2.832,5.53-3.782,8.589
		c-1.942,5.771-2.721,11.622-2.338,17.559c0.389,5.94,1.795,11.526,4.225,16.768c2.431,5.236,5.779,9.952,10.037,14.157
		c4.259,4.197,9.264,7.526,15.019,9.97c6.057,2.559,12.249,3.801,18.584,3.734c6.33-0.072,12.477-1.489,18.433-4.252
		c5.902-2.612,11.059-6.226,15.473-10.834s7.75-9.995,10.005-16.159c3.135-8.571,3.805-17.148,2.04-25.719
		c-1.764-8.578-5.745-16.214-11.946-22.915c-2.813-2.907-4.656-6.267-5.482-10.063c-0.787-3.786-0.516-7.561,0.859-11.323
		L138.217,57.397z"/>
	<path fill="#4A576A" d="M137.971,41.896c7.343,0,13.336-5.99,13.336-13.336c0-7.341-5.993-13.331-13.336-13.331
		c-7.345,0-13.337,5.99-13.337,13.331C124.634,35.906,130.626,41.896,137.971,41.896z"/>
</g>
</svg>
