<?xml version="1.0" encoding="utf-8"?>
<svg version="1.1" xmlns:xlink="http://www.w3.org/1999/xlink" width="71px" height="59px" xmlns="http://www.w3.org/2000/svg">
  <g transform="matrix(1 0 0 1 -155 -318 )">
    <path d="M 26.696 37.8975080645161  C 26.7004375 27.0089153225806  36.1256875 18.1712862903227  48.058125 18.1712862903227  C 48.874625 18.1712862903227  49.6778125 18.2329032258064  50.4854375 18.3209274193549  C 48.3110625 8.27736693548394  37.488 0.817316532258076  25.1295625 0.817316532258076  C 11.315625 0.817316532258076  0 10.1522822580644  0 22.0135423387098  C 0 28.8574233870967  3.763 34.4777681451612  10.055375 38.8437681451611  L 7.54375000000001 46.3390282258066  L 16.33 41.9730282258065  C 19.47175 42.5847963709678  21.99225 43.218570564516  25.1295625 43.218570564516  C 25.9194375 43.218570564516  26.7004375 43.1833608870969  27.4725625 43.1261451612903  C 26.9844375 41.4580866935482  26.696 39.7152076612905  26.696 37.8975080645161  Z M 30.7829375 14.5270846774193  C 30.7829375 12.6477681451612  32.668875 11.4154294354838  34.550375 11.4154294354838  C 36.449625 11.4154294354838  37.6965625 12.6521693548386  37.6965625 14.5270846774193  C 37.6965625 16.393197580645  36.449625 17.6431411290323  34.550375 17.6431411290323  C 32.6733125 17.6431411290323  30.7829375 16.393197580645  30.7829375 14.5270846774193  Z M 20.101875 14.5270846774193  C 20.101875 16.393197580645  18.8505 17.6431411290323  16.9645625 17.6431411290323  C 15.078625 17.6431411290323  13.179375 16.393197580645  13.179375 14.5270846774193  C 13.179375 12.6521693548386  15.078625 11.4154294354838  16.9645625 11.4154294354838  C 18.8505 11.4154294354838  20.101875 12.6477681451612  20.101875 14.5270846774193  Z M 62.1915625 51.9549717741935  C 67.237 48.1963387096775  71 43.218570564516  71 37.5982258064518  C 71 27.633887096774  60.944625 19.5136552419356  49.6511875 19.5136552419356  C 37.692125 19.5136552419356  28.2801875 27.6382883064517  28.2801875 37.5982258064518  C 28.2801875 47.5889717741936  37.6965625 55.6827963709677  49.6511875 55.6827963709677  C 52.1539375 55.6827963709677  54.678875 55.0622258064516  57.1905 54.4372540322579  L 64.0819375 58.1870846774193  L 62.1915625 51.9549717741935  Z M 45.866 31.9866834677418  C 45.866 33.2454294354841  44.6279375 34.4777681451612  42.7198125 34.4777681451612  C 41.472875 34.4777681451612  40.2081875 33.2454294354841  40.2081875 31.9866834677418  C 40.2081875 30.7455423387099  41.472875 29.4955987903226  42.7198125 29.4955987903226  C 44.6279375 29.4955987903226  45.866 30.7455423387099  45.866 31.9866834677418  Z M 59.6888125 31.9866834677418  C 59.6888125 33.2454294354841  58.433 34.4777681451612  56.542625 34.4777681451612  C 55.3045625 34.4777681451612  54.0443125 33.2454294354841  54.0443125 31.9866834677418  C 54.0443125 30.7455423387099  55.300125 29.4955987903226  56.542625 29.4955987903226  C 58.433 29.4955987903226  59.6888125 30.7455423387099  59.6888125 31.9866834677418  Z " fill-rule="nonzero" fill="#66cc66" stroke="none" transform="matrix(1 0 0 1 155 318 )" />
  </g>
</svg>